<svg xmlns="http://www.w3.org/2000/svg" xmlns:xlink="http://www.w3.org/1999/xlink" version="1.1" viewBox="0 0 4960 1580" style="background: #111111"><style id="v-3" type="text/css">
        .joint-element .scalable * {
            vector-effect: non-scaling-stroke;
        }
    </style><defs joint-selector="defs"><marker id="v-2-527367903" orient="auto" overflow="visible" markerUnits="userSpaceOnUse"><path id="v-47" stroke="#cccccc" fill="#cccccc" transform="rotate(180)" d="M 20 -10 0 0 20 10 Z"></path></marker></defs><g  joint-selector="layers" transform="matrix(1,0,0,1,0,0)"><g style="pointer-events: none;" ></g><g ></g><g  style="user-select: none;"><!--z-index:1--><!--z-index:2--><!--z-index:3--><!--z-index:4--><!--z-index:5--><!--z-index:6--><!--z-index:7--><!--z-index:8--><!--z-index:9--><!--z-index:10--><!--z-index:11--><!--z-index:12--><!--z-index:13--><!--z-index:14--><!--z-index:15--><g   id="j_38"  transform="translate(20,1536)"><g id="v-356"><text  id="v-357" font-size="24px" xml:space="preserve" y="0.8em" font-weight="normal" text-anchor="start" fill="#cccccc" pointer-events="none" display="block" font-family="Tahoma, Verdana, Helvetica, Arial"><tspan  dy="0">Wednesday, January 14, 2026 at 1:53 AM Central European Standard Time</tspan></text></g></g><!--z-index:16--><g   id="j_37"  transform="translate(20,1490)"><g id="v-354"><text  id="v-355" font-size="36px" xml:space="preserve" y="0.8em" font-weight="normal" text-anchor="start" fill="#cccccc" pointer-events="none" display="block" font-family="Tahoma, Verdana, Helvetica, Arial"><tspan  dy="0">Container View: PDF Merger Service</tspan></text></g></g><!--z-index:17--><g   id="j_39"  transform="translate(199,561)" style=""><g  id="v-361" style="opacity: 1;"><rect  x="0" y="160" width="400" height="240" rx="70" id="v-363" stroke-width="2" pointer-events="visiblePainted" fill="#08427b" stroke="#073b6f" stroke-dasharray=""></rect><circle  cx="200" cy="88.88888888888889" r="88.88888888888889" id="v-362" stroke-width="2" pointer-events="visiblePainted" fill="#08427b" stroke="#073b6f" stroke-dasharray=""></circle><line  x1="80" y1="266.6666666666667" x2="80" y2="400" id="v-369" stroke="#073b6f" stroke-width="1" stroke-dasharray=""></line><line  x1="320" y1="266.6666666666667" x2="320" y2="400" id="v-370" stroke="#073b6f" stroke-width="1" stroke-dasharray=""></line><text  id="v-364" font-size="33.599999999999994px" xml:space="preserve" y="216.9" font-weight="bold" text-anchor="middle" pointer-events="visible" font-family="Tahoma, Verdana, Helvetica, Arial" fill="#ffffff" dominant-baseline="hanging" transform="matrix(1,0,0,1,200,0)"><tspan  dy="0">User</tspan></text><text  id="v-365" font-size="16.799999999999997px" xml:space="preserve" y="258.5" text-anchor="middle" font-family="Tahoma, Verdana, Helvetica, Arial" fill="#ffffff" dominant-baseline="hanging" transform="matrix(1,0,0,1,200,0)" style="display: block;"><tspan  dy="0">[Person]</tspan></text><text  id="v-366" font-size="24px" xml:space="preserve" y="290.3" text-anchor="middle" font-family="Tahoma, Verdana, Helvetica, Arial" fill="#ffffff" dominant-baseline="hanging" transform="matrix(1,0,0,1,200,0)" style="display: block;"><tspan  dy="0">Wysyła żądania HTTP do</tspan><tspan dy="1.2em" x="0" >systemu, by scalać pliki PDF.</tspan></text><g  id="v-367" font-weight="normal" text-anchor="middle" color="#ffffff" transform="matrix(1,0,0,1,197.5,368)" display="none"><g ></g><g ></g><g ></g><g ></g></g><image  id="v-368"></image></g></g><!--z-index:18--><g   id="j_41"  transform="translate(1239,160)" style=""><g id="v-387"><rect  id="v-388" width="3520" height="1180" rx="0" ry="0" stroke-width="2" pointer-events="none" stroke="#0f5eaa" fill="#111111" stroke-dasharray=""></rect><text  id="v-389" font-size="33.599999999999994px" xml:space="preserve" y="1141" font-weight="bold" text-anchor="start" pointer-events="visible" font-family="Tahoma, Verdana, Helvetica, Arial" fill="#ffffff" transform="matrix(1,0,0,1,15,0)"><tspan  dy="0">PDF Merger Service</tspan></text><text  id="v-390" font-size="16.799999999999997px" xml:space="preserve" y="1165" font-weight="normal" text-anchor="start" pointer-events="visible" font-family="Tahoma, Verdana, Helvetica, Arial" fill="#ffffff" transform="matrix(1,0,0,1,15,0)"><tspan  dy="0">[Software System]</tspan></text><image  id="v-391" pointer-events="visible"></image></g></g><!--z-index:19--><g   id="j_40"  transform="translate(1289,611)" style=""><g  id="v-380" style="opacity: 1;"><rect  id="v-381" rx="1" ry="1" stroke-width="2" pointer-events="visiblePainted" fill="#438dd5" stroke="#3c7fc0" stroke-dasharray="" width="450" height="300"></rect><text  id="v-382" font-size="33.599999999999994px" xml:space="preserve" y="66.74000000000001" font-weight="bold" text-anchor="middle" pointer-events="visible" font-family="Tahoma, Verdana, Helvetica, Arial" fill="#ffffff" dominant-baseline="hanging" transform="matrix(1,0,0,1,225,0)"><tspan  dy="0">Cloud Function</tspan><tspan dy="1.2em" x="0" >(Publisher)</tspan></text><text  id="v-383" font-size="16.799999999999997px" xml:space="preserve" y="148.66" text-anchor="middle" font-family="Tahoma, Verdana, Helvetica, Arial" fill="#ffffff" dominant-baseline="hanging" transform="matrix(1,0,0,1,225,0)" style="display: block;"><tspan  dy="0">[Container: Java / Cloud Functions]</tspan></text><text  id="v-384" font-size="24px" xml:space="preserve" y="180.45999999999998" text-anchor="middle" font-family="Tahoma, Verdana, Helvetica, Arial" fill="#ffffff" dominant-baseline="hanging" transform="matrix(1,0,0,1,225,0)" style="display: block;"><tspan  dy="0">Publikuje zadania do Pub/Sub po</tspan><tspan dy="1.2em" x="0" >otrzymaniu żądania HTTP.</tspan></text><g  id="v-385" color="#ffffff" transform="matrix(1,0,0,1,222.5,268)" display="none"><g ></g><g ></g><g ></g><g ></g></g><image  id="v-386"></image></g></g><!--z-index:20--><g   id="j_42"  transform="translate(2279,386)" style=""><g  id="v-398" style="opacity: 1;"><rect  id="v-399" rx="1" ry="1" stroke-width="2" pointer-events="visiblePainted" fill="#438dd5" stroke="#3c7fc0" stroke-dasharray="" width="450" height="300"></rect><text  id="v-400" font-size="33.599999999999994px" xml:space="preserve" y="86.9" font-weight="bold" text-anchor="middle" pointer-events="visible" font-family="Tahoma, Verdana, Helvetica, Arial" fill="#ffffff" dominant-baseline="hanging" transform="matrix(1,0,0,1,225,0)"><tspan  dy="0">Pub/Sub</tspan></text><text  id="v-401" font-size="16.799999999999997px" xml:space="preserve" y="128.5" text-anchor="middle" font-family="Tahoma, Verdana, Helvetica, Arial" fill="#ffffff" dominant-baseline="hanging" transform="matrix(1,0,0,1,225,0)" style="display: block;"><tspan  dy="0">[Container: Google Cloud Pub/Sub]</tspan></text><text  id="v-402" font-size="24px" xml:space="preserve" y="160.3" text-anchor="middle" font-family="Tahoma, Verdana, Helvetica, Arial" fill="#ffffff" dominant-baseline="hanging" transform="matrix(1,0,0,1,225,0)" style="display: block;"><tspan  dy="0">Kolejkuje wiadomości o zadaniach</tspan><tspan dy="1.2em" x="0" >łączenia PDF.</tspan></text><g  id="v-403" color="#ffffff" transform="matrix(1,0,0,1,222.5,268)" display="none"><g ></g><g ></g><g ></g><g ></g></g><image  id="v-404"></image></g></g><!--z-index:21--><g   id="j_43"  transform="translate(3269,386)" style=""><g  id="v-414" style="opacity: 1;"><rect  id="v-415" rx="1" ry="1" stroke-width="2" pointer-events="visiblePainted" fill="#438dd5" stroke="#3c7fc0" stroke-dasharray="" width="450" height="300"></rect><text  id="v-416" font-size="33.599999999999994px" xml:space="preserve" y="72.5" font-weight="bold" text-anchor="middle" pointer-events="visible" font-family="Tahoma, Verdana, Helvetica, Arial" fill="#ffffff" dominant-baseline="hanging" transform="matrix(1,0,0,1,225,0)"><tspan  dy="0">Spring Boot Worker (VM)</tspan></text><text  id="v-417" font-size="16.799999999999997px" xml:space="preserve" y="114.1" text-anchor="middle" font-family="Tahoma, Verdana, Helvetica, Arial" fill="#ffffff" dominant-baseline="hanging" transform="matrix(1,0,0,1,225,0)" style="display: block;"><tspan  dy="0">[Container: Java / Spring Boot / Compute Engine]</tspan></text><text  id="v-418" font-size="24px" xml:space="preserve" y="145.89999999999998" text-anchor="middle" font-family="Tahoma, Verdana, Helvetica, Arial" fill="#ffffff" dominant-baseline="hanging" transform="matrix(1,0,0,1,225,0)" style="display: block;"><tspan  dy="0">Odbiera wiadomości z Pub/Sub,</tspan><tspan dy="1.2em" x="0" >scala PDF-y i zapisuje wynik w</tspan><tspan dy="1.2em" x="0" >Cloud Storage.</tspan></text><g  id="v-419" color="#ffffff" transform="matrix(1,0,0,1,210,268)" display="none"><g  transform="translate(5 0)"><svg xmlns="http://www.w3.org/2000/svg" width="20" height="20" fill="currentColor" viewBox="0 0 16 16"><path fill-rule="evenodd" d="M6.5 12a5.5 5.5 0 1 0 0-11 5.5 5.5 0 0 0 0 11zM13 6.5a6.5 6.5 0 1 1-13 0 6.5 6.5 0 0 1 13 0z"></path><path d="M10.344 11.742c.03.04.062.078.098.115l3.85 3.85a1 1 0 0 0 1.415-1.414l-3.85-3.85a1.007 1.007 0 0 0-.115-.1 6.538 6.538 0 0 1-1.398 1.4z"></path><path fill-rule="evenodd" d="M6.5 3a.5.5 0 0 1 .5.5V6h2.5a.5.5 0 0 1 0 1H7v2.5a.5.5 0 0 1-1 0V7H3.5a.5.5 0 0 1 0-1H6V3.5a.5.5 0 0 1 .5-.5z"></path></svg></g><g ></g><g ></g><g ></g></g><image  id="v-420"></image></g></g><!--z-index:22--><g   id="j_44"  transform="translate(4259,210)" style=""><g  id="v-427" style="opacity: 1;"><rect  id="v-428" rx="1" ry="1" stroke-width="2" pointer-events="visiblePainted" fill="#438dd5" stroke="#3c7fc0" stroke-dasharray="" width="450" height="300"></rect><text  id="v-429" font-size="33.599999999999994px" xml:space="preserve" y="86.9" font-weight="bold" text-anchor="middle" pointer-events="visible" font-family="Tahoma, Verdana, Helvetica, Arial" fill="#ffffff" dominant-baseline="hanging" transform="matrix(1,0,0,1,225,0)"><tspan  dy="0">Cloud Storage</tspan></text><text  id="v-430" font-size="16.799999999999997px" xml:space="preserve" y="128.5" text-anchor="middle" font-family="Tahoma, Verdana, Helvetica, Arial" fill="#ffffff" dominant-baseline="hanging" transform="matrix(1,0,0,1,225,0)" style="display: block;"><tspan  dy="0">[Container: Google Cloud Storage]</tspan></text><text  id="v-431" font-size="24px" xml:space="preserve" y="160.3" text-anchor="middle" font-family="Tahoma, Verdana, Helvetica, Arial" fill="#ffffff" dominant-baseline="hanging" transform="matrix(1,0,0,1,225,0)" style="display: block;"><tspan  dy="0">Przechowuje pliki PDF źródłowe i</tspan><tspan dy="1.2em" x="0" >scalone.</tspan></text><g  id="v-432" color="#ffffff" transform="matrix(1,0,0,1,222.5,268)" display="none"><g ></g><g ></g><g ></g><g ></g></g><image  id="v-433"></image></g></g><!--z-index:23--><g   id="j_45"  transform="translate(4259,911)" style=""><g  id="v-440" style="opacity: 1;"><rect  id="v-441" rx="1" ry="1" stroke-width="2" pointer-events="visiblePainted" fill="#438dd5" stroke="#3c7fc0" stroke-dasharray="" width="450" height="300"></rect><text  id="v-442" font-size="33.599999999999994px" xml:space="preserve" y="101.30000000000001" font-weight="bold" text-anchor="middle" pointer-events="visible" font-family="Tahoma, Verdana, Helvetica, Arial" fill="#ffffff" dominant-baseline="hanging" transform="matrix(1,0,0,1,225,0)"><tspan  dy="0">Cloud Logging</tspan></text><text  id="v-443" font-size="16.799999999999997px" xml:space="preserve" y="142.9" text-anchor="middle" font-family="Tahoma, Verdana, Helvetica, Arial" fill="#ffffff" dominant-baseline="hanging" transform="matrix(1,0,0,1,225,0)" style="display: block;"><tspan  dy="0">[Container: Google Cloud Logging / Monitoring]</tspan></text><text  id="v-444" font-size="24px" xml:space="preserve" y="174.7" text-anchor="middle" font-family="Tahoma, Verdana, Helvetica, Arial" fill="#ffffff" dominant-baseline="hanging" transform="matrix(1,0,0,1,225,0)" style="display: block;"><tspan  dy="0">Zbiera logi i metryki z komponentów.</tspan></text><g  id="v-445" color="#ffffff" transform="matrix(1,0,0,1,222.5,268)" display="none"><g ></g><g ></g><g ></g><g ></g></g><image  id="v-446"></image></g></g><!--z-index:24--><g   id="j_46"  style="opacity: 1;"><path fill="none" cursor="pointer" stroke="transparent" stroke-linecap="round" joint-selector="wrapper" id="v-458" stroke-width="10" stroke-linejoin="round" d="M 599 761 L 1289 761"></path><path fill="none" pointer-events="none" joint-selector="line" id="v-457" stroke="#cccccc" stroke-width="2" stroke-linejoin="round" stroke-dasharray="8 8" d="M 599 761 L 1289 761" marker-end="url(#v-2-527367903)"></path><g id="v-450" ><g id="v-451"  label-idx="0" cursor="move" transform="matrix(1,0,0,1,869,761)" style="cursor: default;"><rect joint-selector="rect" id="v-454" fill="#111111" rx="3" ry="3" x="-83.55000305175781" y="-39.599998474121094" width="170.39999389648438" height="84.60000610351562" pointer-events="none"></rect><text joint-selector="text" id="v-453" font-size="24px" xml:space="preserve" fill="#cccccc" text-anchor="middle" pointer-events="none" font-family="Tahoma, Verdana, Helvetica, Arial" font-weight="normal"><tspan  dy="-0.8999999999999999em">Wysyła żądanie</tspan><tspan dy="1.2em" x="0" >HTTP z listą</tspan><tspan dy="1.2em" x="0" >plików PDF</tspan></text></g><g id="v-452"  label-idx="1" cursor="move" transform="matrix(1,0,0,1,859,801.7999877929688)" style="cursor: default;"><rect joint-selector="rect" id="v-456" fill="#ffffff" rx="3" ry="3" x="0" y="0" width="0" height="0"  display="none"></rect><text joint-selector="text" id="v-455" fill="#000000" font-size="14" text-anchor="middle" text-vertical-anchor="middle" pointer-events="none"></text></g></g></g><!--z-index:25--><g   id="j_47"  style="opacity: 1;"><path fill="none" cursor="pointer" stroke="transparent" stroke-linecap="round" joint-selector="wrapper" id="v-470" stroke-width="10" stroke-linejoin="round" d="M 1739 658.91 L 2000 541 C 2006 537.9333333333332 2012.3333333333333 536.2666666666665 2019 536 L 2279 536.18"></path><path fill="none" pointer-events="none" joint-selector="line" id="v-469" stroke="#cccccc" stroke-width="2" stroke-linejoin="round" stroke-dasharray="8 8" d="M 1739 658.91 L 2000 541 C 2006 537.9333333333332 2012.3333333333333 536.2666666666665 2019 536 L 2279 536.18" marker-end="url(#v-2-527367903)"></path><g id="v-462" ><g id="v-463"  label-idx="0" cursor="move" transform="matrix(1,0,0,1,2009.32421875,537.4305419921875)" style="cursor: default;"><rect joint-selector="rect" id="v-466" fill="#111111" rx="3" ry="3" x="-99.0250015258789" y="-39.599998474121094" width="201.35000610351562" height="84.60000610351562" pointer-events="none"></rect><text joint-selector="text" id="v-465" font-size="24px" xml:space="preserve" fill="#cccccc" text-anchor="middle" pointer-events="none" font-family="Tahoma, Verdana, Helvetica, Arial" font-weight="normal"><tspan  dy="-0.8999999999999999em">Publikuje</tspan><tspan dy="1.2em" x="0" >wiadomość z</tspan><tspan dy="1.2em" x="0" >zadaniem łączenia</tspan></text></g><g id="v-464"  label-idx="1" cursor="move" transform="matrix(1,0,0,1,1999.32421875,578.2305297851562)" style="cursor: default;"><rect joint-selector="rect" id="v-468" fill="#ffffff" rx="3" ry="3" x="-2.2737367544323206e-13" y="0" width="0" height="0"  display="none"></rect><text joint-selector="text" id="v-467" fill="#000000" font-size="14" text-anchor="middle" text-vertical-anchor="middle" pointer-events="none"></text></g></g></g><!--z-index:26--><g   id="j_48"  style="opacity: 1;"><path fill="none" cursor="pointer" stroke="transparent" stroke-linecap="round" joint-selector="wrapper" id="v-482" stroke-width="10" stroke-linejoin="round" d="M 2729 536 L 3269 536"></path><path fill="none" pointer-events="none" joint-selector="line" id="v-481" stroke="#cccccc" stroke-width="2" stroke-linejoin="round" stroke-dasharray="8 8" d="M 2729 536 L 3269 536" marker-end="url(#v-2-527367903)"></path><g id="v-474" ><g id="v-475"  label-idx="0" cursor="move" transform="matrix(1,0,0,1,2999,536)" style="cursor: default;"><rect joint-selector="rect" id="v-478" fill="#111111" rx="3" ry="3" x="-83.69999694824219" y="-45.599998474121094" width="168.6999969482422" height="90.60000610351562" pointer-events="none"></rect><text joint-selector="text" id="v-477" font-size="24px" xml:space="preserve" fill="#cccccc" text-anchor="middle" pointer-events="none" font-family="Tahoma, Verdana, Helvetica, Arial" font-weight="normal"><tspan  dy="-0.8999999999999999em">Dostarcza</tspan><tspan dy="1.2em" x="0" >komunikat z</tspan><tspan dy="1.2em" x="0" >nazwami plików</tspan></text></g><g id="v-476"  label-idx="1" cursor="move" transform="matrix(1,0,0,1,2989,576.7999877929688)" style="cursor: default;"><rect joint-selector="rect" id="v-480" fill="#ffffff" rx="3" ry="3" x="0" y="0" width="0" height="0"  display="none"></rect><text joint-selector="text" id="v-479" fill="#000000" font-size="14" text-anchor="middle" text-vertical-anchor="middle" pointer-events="none"></text></g></g></g><!--z-index:27--><g   id="j_49"  style="opacity: 1;"><path fill="none" cursor="pointer" stroke="transparent" stroke-linecap="round" joint-selector="wrapper" id="v-494" stroke-width="10" stroke-linejoin="round" d="M 3719 456 L 3980 363 C 3985.9999999999995 361 3992.333333333333 360 3999 360 L 4259 360"></path><path fill="none" pointer-events="none" joint-selector="line" id="v-493" stroke="#cccccc" stroke-width="2" stroke-linejoin="round" stroke-dasharray="8 8" d="M 3719 456 L 3980 363 C 3985.9999999999995 361 3992.333333333333 360 3999 360 L 4259 360" marker-end="url(#v-2-527367903)"></path><g id="v-486" ><g id="v-487"  label-idx="0" cursor="move" transform="matrix(1,0,0,1,3989.138671875,360.7676696777344)" style="cursor: default;"><rect joint-selector="rect" id="v-490" fill="#111111" rx="3" ry="3" x="-94.2750015258789" y="-25.19999885559082" width="191.84999084472656" height="55.80000305175781" pointer-events="none"></rect><text joint-selector="text" id="v-489" font-size="24px" xml:space="preserve" fill="#cccccc" text-anchor="middle" pointer-events="none" font-family="Tahoma, Verdana, Helvetica, Arial" font-weight="normal"><tspan  dy="-0.3em">Pobiera i zapisuje</tspan><tspan dy="1.2em" x="0" >pliki PDF</tspan></text></g><g id="v-488"  label-idx="1" cursor="move" transform="matrix(1,0,0,1,3979.138671875,387.1676940917969)" style="cursor: default;"><rect joint-selector="rect" id="v-492" fill="#ffffff" rx="3" ry="3" x="0" y="0" width="0" height="0"  display="none"></rect><text joint-selector="text" id="v-491" fill="#000000" font-size="14" text-anchor="middle" text-vertical-anchor="middle" pointer-events="none"></text></g></g></g><!--z-index:28--><g   id="j_50"  style="opacity: 1;"><path fill="none" cursor="pointer" stroke="transparent" stroke-linecap="round" joint-selector="wrapper" id="v-506" stroke-width="10" stroke-linejoin="round" d="M 3719 672.55 L 3980 831 C 3985.9999999999995 834.5999999999999 3991.9999999999995 837.9333333333332 3998 841 L 4259 958.91"></path><path fill="none" pointer-events="none" joint-selector="line" id="v-505" stroke="#cccccc" stroke-width="2" stroke-linejoin="round" stroke-dasharray="8 8" d="M 3719 672.55 L 3980 831 C 3985.9999999999995 834.5999999999999 3991.9999999999995 837.9333333333332 3998 841 L 4259 958.91" marker-end="url(#v-2-527367903)"></path><g id="v-498" ><g id="v-499"  label-idx="0" cursor="move" transform="matrix(1,0,0,1,3989,836.2000122070312)" style="cursor: default;"><rect joint-selector="rect" id="v-502" fill="#111111" rx="3" ry="3" x="-60.25" y="-25.19999885559082" width="122.10000610351562" height="55.80000305175781" pointer-events="none"></rect><text joint-selector="text" id="v-501" font-size="24px" xml:space="preserve" fill="#cccccc" text-anchor="middle" pointer-events="none" font-family="Tahoma, Verdana, Helvetica, Arial" font-weight="normal"><tspan  dy="-0.3em">Wysyła logi</tspan><tspan dy="1.2em" x="0" >operacyjne</tspan></text></g><g id="v-500"  label-idx="1" cursor="move" transform="matrix(1,0,0,1,3979,862.5999755859375)" style="cursor: default;"><rect joint-selector="rect" id="v-504" fill="#ffffff" rx="3" ry="3" x="0" y="-1.1368683772161603e-13" width="0" height="0"  display="none"></rect><text joint-selector="text" id="v-503" fill="#000000" font-size="14" text-anchor="middle" text-vertical-anchor="middle" pointer-events="none"></text></g></g></g><!--z-index:29--><g   id="j_51"  style="opacity: 1;"><path fill="none" cursor="pointer" stroke="transparent" stroke-linecap="round" joint-selector="wrapper" id="v-518" stroke-width="10" stroke-linejoin="round" d="M 1674.16 911 L 2002 1218 C 2006.6666666666665 1222.3999999999999 2012.3333333333333 1224.7333333333331 2019 1225 L 3979 1225 C 3985.666666666666 1224.7333333333331 3991.9999999999995 1223.3999999999999 3998 1221 L 4259 1135.36"></path><path fill="none" pointer-events="none" joint-selector="line" id="v-517" stroke="#cccccc" stroke-width="2" stroke-linejoin="round" stroke-dasharray="8 8" d="M 1674.16 911 L 2002 1218 C 2006.6666666666665 1222.3999999999999 2012.3333333333333 1224.7333333333331 2019 1225 L 3979 1225 C 3985.666666666666 1224.7333333333331 3991.9999999999995 1223.3999999999999 3998 1221 L 4259 1135.36" marker-end="url(#v-2-527367903)"></path><g id="v-510" ><g id="v-511"  label-idx="0" cursor="move" transform="matrix(1,0,0,1,2999.15478515625,1225)" style="cursor: default;"><rect joint-selector="rect" id="v-514" fill="#111111" rx="3" ry="3" x="-60.25" y="-25.19999885559082" width="121.79999542236328" height="55.80000305175781" pointer-events="none"></rect><text joint-selector="text" id="v-513" font-size="24px" xml:space="preserve" fill="#cccccc" text-anchor="middle" pointer-events="none" font-family="Tahoma, Verdana, Helvetica, Arial" font-weight="normal"><tspan  dy="-0.3em">Wysyła logi</tspan><tspan dy="1.2em" x="0" >wywołań</tspan></text></g><g id="v-512"  label-idx="1" cursor="move" transform="matrix(1,0,0,1,2989.15478515625,1251.4000244140625)" style="cursor: default;"><rect joint-selector="rect" id="v-516" fill="#ffffff" rx="3" ry="3" x="0" y="0" width="0" height="0"  display="none"></rect><text joint-selector="text" id="v-515" fill="#000000" font-size="14" text-anchor="middle" text-vertical-anchor="middle" pointer-events="none"></text></g></g></g><!--z-index:30--></g><g  style="user-select: none;"></g><g ></g><g  display="none"></g></g></svg>