<svg xmlns="http://www.w3.org/2000/svg" xmlns:xlink="http://www.w3.org/1999/xlink" version="1.1" viewBox="0 0 1790 800" style="background: #111111"><style id="v-3" type="text/css">
        .joint-element .scalable * {
            vector-effect: non-scaling-stroke;
        }
    </style><defs joint-selector="defs"><marker id="v-2-527367903" orient="auto" overflow="visible" markerUnits="userSpaceOnUse"><path id="v-47" stroke="#cccccc" fill="#cccccc" transform="rotate(180)" d="M 20 -10 0 0 20 10 Z"></path></marker></defs><g  joint-selector="layers" transform="matrix(1,0,0,1,0,0)"><g style="pointer-events: none;" ></g><g ></g><g  style="user-select: none;"><!--z-index:1--><!--z-index:2--><!--z-index:3--><!--z-index:4--><!--z-index:5--><g   id="j_73"  transform="translate(20,756)"><g id="v-734"><text  id="v-735" font-size="24px" xml:space="preserve" y="0.8em" font-weight="normal" text-anchor="start" fill="#cccccc" pointer-events="none" display="block" font-family="Tahoma, Verdana, Helvetica, Arial"><tspan  dy="0">Wednesday, January 14, 2026 at 1:53 AM Central European Standard Time</tspan></text></g></g><!--z-index:6--><g   id="j_72"  transform="translate(20,710)"><g id="v-732"><text  id="v-733" font-size="36px" xml:space="preserve" y="0.8em" font-weight="normal" text-anchor="start" fill="#cccccc" pointer-events="none" display="block" font-family="Tahoma, Verdana, Helvetica, Arial"><tspan  dy="0">System Context View: PDF Merger Service</tspan></text></g></g><!--z-index:7--><g   id="j_74"  transform="translate(199,159)" style=""><g  id="v-739" style="opacity: 1;"><rect  x="0" y="160" width="400" height="240" rx="70" id="v-741" stroke-width="2" pointer-events="visiblePainted" fill="#08427b" stroke="#073b6f" stroke-dasharray=""></rect><circle  cx="200" cy="88.88888888888889" r="88.88888888888889" id="v-740" stroke-width="2" pointer-events="visiblePainted" fill="#08427b" stroke="#073b6f" stroke-dasharray=""></circle><line  x1="80" y1="266.6666666666667" x2="80" y2="400" id="v-747" stroke="#073b6f" stroke-width="1" stroke-dasharray=""></line><line  x1="320" y1="266.6666666666667" x2="320" y2="400" id="v-748" stroke="#073b6f" stroke-width="1" stroke-dasharray=""></line><text  id="v-742" font-size="33.599999999999994px" xml:space="preserve" y="216.9" font-weight="bold" text-anchor="middle" pointer-events="visible" font-family="Tahoma, Verdana, Helvetica, Arial" fill="#ffffff" dominant-baseline="hanging" transform="matrix(1,0,0,1,200,0)"><tspan  dy="0">User</tspan></text><text  id="v-743" font-size="16.799999999999997px" xml:space="preserve" y="258.5" text-anchor="middle" font-family="Tahoma, Verdana, Helvetica, Arial" fill="#ffffff" dominant-baseline="hanging" transform="matrix(1,0,0,1,200,0)" style="display: block;"><tspan  dy="0">[Person]</tspan></text><text  id="v-744" font-size="24px" xml:space="preserve" y="290.3" text-anchor="middle" font-family="Tahoma, Verdana, Helvetica, Arial" fill="#ffffff" dominant-baseline="hanging" transform="matrix(1,0,0,1,200,0)" style="display: block;"><tspan  dy="0">Wysyła żądania HTTP do</tspan><tspan dy="1.2em" x="0" >systemu, by scalać pliki PDF.</tspan></text><g  id="v-745" font-weight="normal" text-anchor="middle" color="#ffffff" transform="matrix(1,0,0,1,197.5,368)" display="none"><g ></g><g ></g><g ></g><g ></g></g><image  id="v-746"></image></g></g><!--z-index:8--><g   id="j_75"  transform="translate(1139,209)" style=""><g  id="v-755" style="opacity: 1;"><rect  id="v-756" rx="1" ry="1" stroke-width="2" pointer-events="visiblePainted" fill="#1168bd" stroke="#0f5eaa" stroke-dasharray="" width="450" height="300"></rect><text  id="v-757" font-size="33.599999999999994px" xml:space="preserve" y="101.30000000000001" font-weight="bold" text-anchor="middle" pointer-events="visible" font-family="Tahoma, Verdana, Helvetica, Arial" fill="#ffffff" dominant-baseline="hanging" transform="matrix(1,0,0,1,225,0)"><tspan  dy="0">PDF Merger Service</tspan></text><text  id="v-758" font-size="16.799999999999997px" xml:space="preserve" y="142.9" text-anchor="middle" font-family="Tahoma, Verdana, Helvetica, Arial" fill="#ffffff" dominant-baseline="hanging" transform="matrix(1,0,0,1,225,0)" style="display: block;"><tspan  dy="0">[Software System]</tspan></text><text  id="v-759" font-size="24px" xml:space="preserve" y="174.7" text-anchor="middle" font-family="Tahoma, Verdana, Helvetica, Arial" fill="#ffffff" dominant-baseline="hanging" transform="matrix(1,0,0,1,225,0)" style="display: block;"><tspan  dy="0">System scalający pliki PDF w GCP.</tspan></text><g  id="v-760" color="#ffffff" transform="matrix(1,0,0,1,210,268)" display="none"><g  transform="translate(5 0)"><svg xmlns="http://www.w3.org/2000/svg" width="20" height="20" fill="currentColor" viewBox="0 0 16 16"><path fill-rule="evenodd" d="M6.5 12a5.5 5.5 0 1 0 0-11 5.5 5.5 0 0 0 0 11zM13 6.5a6.5 6.5 0 1 1-13 0 6.5 6.5 0 0 1 13 0z"></path><path d="M10.344 11.742c.03.04.062.078.098.115l3.85 3.85a1 1 0 0 0 1.415-1.414l-3.85-3.85a1.007 1.007 0 0 0-.115-.1 6.538 6.538 0 0 1-1.398 1.4z"></path><path fill-rule="evenodd" d="M6.5 3a.5.5 0 0 1 .5.5V6h2.5a.5.5 0 0 1 0 1H7v2.5a.5.5 0 0 1-1 0V7H3.5a.5.5 0 0 1 0-1H6V3.5a.5.5 0 0 1 .5-.5z"></path></svg></g><g ></g><g ></g><g ></g></g><image  id="v-761"></image></g></g><!--z-index:9--><g   id="j_76"  style="opacity: 1;"><path fill="none" cursor="pointer" stroke="transparent" stroke-linecap="round" joint-selector="wrapper" id="v-773" stroke-width="10" stroke-linejoin="round" d="M 599 359 L 1139 359"></path><path fill="none" pointer-events="none" joint-selector="line" id="v-772" stroke="#cccccc" stroke-width="2" stroke-linejoin="round" stroke-dasharray="8 8" d="M 599 359 L 1139 359" marker-end="url(#v-2-527367903)"></path><g id="v-765" ><g id="v-766"  label-idx="0" cursor="move" transform="matrix(1,0,0,1,869,359)" style="cursor: default;"><rect joint-selector="rect" id="v-769" fill="#111111" rx="3" ry="3" x="-83.52452087402344" y="-39.555110931396484" width="168.3125457763672" height="83.53516387939453" pointer-events="none"></rect><text joint-selector="text" id="v-768" font-size="24px" xml:space="preserve" fill="#cccccc" text-anchor="middle" pointer-events="none" font-family="Tahoma, Verdana, Helvetica, Arial" font-weight="normal"><tspan  dy="-0.8999999999999999em">Wysyła żądanie</tspan><tspan dy="1.2em" x="0" >HTTP z listą</tspan><tspan dy="1.2em" x="0" >plików PDF</tspan></text></g><g id="v-767"  label-idx="1" cursor="move" transform="matrix(1,0,0,1,859,399.79998779296875)" style="cursor: default;"><rect joint-selector="rect" id="v-771" fill="#ffffff" rx="3" ry="3" x="0" y="0" width="0" height="0"  display="none"></rect><text joint-selector="text" id="v-770" fill="#000000" font-size="14" text-anchor="middle" text-vertical-anchor="middle" pointer-events="none"></text></g></g></g><!--z-index:10--><!--z-index:11--><!--z-index:12--><!--z-index:13--><!--z-index:14--><!--z-index:15--><!--z-index:16--><!--z-index:17--><!--z-index:18--><!--z-index:19--><!--z-index:20--><!--z-index:21--><!--z-index:22--><!--z-index:23--><!--z-index:24--><!--z-index:25--><!--z-index:26--><!--z-index:27--><!--z-index:28--><!--z-index:29--><!--z-index:30--></g><g  style="user-select: none;"></g><g ></g><g  display="none"></g></g></svg>